<?xml version="1.0" encoding="UTF-8"?>
<!-- Generated by Pixelmator Pro 3.3.6 -->
<svg width="31" height="32" viewBox="0 0 31 32" xmlns="http://www.w3.org/2000/svg">
    <path id="Rounded-Rectangle" fill="#00a2ff" fill-rule="evenodd" stroke="none" d="M 0 8 C -0 9.10457 0.895431 10 2 10 L 7 10 C 8.104569 10 9 9.10457 9 8 L 9 3 C 9 1.895432 8.104569 1 7 1 L 2 1 C 0.895431 1 0 1.895432 0 3 Z"/>
    <path id="Rounded-Rectangle-copy" fill="#62ba46" fill-rule="evenodd" stroke="none" d="M 11 8 C 11 9.10457 11.895431 10 13 10 L 18 10 C 19.104568 10 20 9.10457 20 8 L 20 3 C 20 1.895432 19.104568 1 18 1 L 13 1 C 11.895431 1 11 1.895432 11 3 Z"/>
    <path id="Rounded-Rectangle-copy-3" fill="#00a2ff" fill-rule="evenodd" stroke="none" d="M 11 19 C 11 20.104568 11.895431 21 13 21 L 18 21 C 19.104568 21 20 20.104568 20 19 L 20 14 C 20 12.895432 19.104568 12 18 12 L 13 12 C 11.895431 12 11 12.895432 11 14 Z"/>
    <path id="Rounded-Rectangle-copy-4" fill="#f7821a" fill-rule="evenodd" stroke="none" d="M 11 30 C 11 31.10457 11.895431 32 13 32 L 18 32 C 19.104568 32 20 31.10457 20 30 L 20 25 C 20 23.895432 19.104568 23 18 23 L 13 23 C 11.895431 23 11 23.895432 11 25 Z"/>
    <path id="Rounded-Rectangle-copy-2" fill="#a450a7" fill-rule="evenodd" stroke="none" d="M 22 8 C 22 9.10457 22.89543 10 24 10 L 29 10 C 30.104568 10 31 9.10457 31 8 L 31 3 C 31 1.895432 30.104568 1 29 1 L 24 1 C 22.89543 1 22 1.895432 22 3 Z"/>
</svg>
